<?xml version="1.0" encoding="UTF-8"?>
<svg id="Layer_2" data-name="Layer 2" xmlns="http://www.w3.org/2000/svg" viewBox="0 0 29.21 38.3">
  <defs>
    <style>
      .cls-1 {
        fill: #333;
        stroke-width: 0px;
      }
    </style>
  </defs>
  <g id="Capa_1" data-name="Capa 1">
    <g>
      <path class="cls-1" d="M17.35,21.63h-2.82v-3.85h2.82c.73,0,1.29.17,1.69.51.4.34.6.81.6,1.43s-.2,1.09-.6,1.42c-.4.33-.96.49-1.69.49Z"/>
      <path class="cls-1" d="M19.35,24.57c.44.37.66.89.66,1.55s-.21,1.15-.63,1.5c-.42.35-1,.53-1.75.53h-3.1v-4.14h3.04c.74,0,1.34.19,1.78.56Z"/>
      <path class="cls-1" d="M27.77,7.65H5.94c-1.08,0-1.41.34-1.41,1.43-.01,4.63-.01,9.26-.01,13.88s0,9.29.01,13.94c0,1.03.36,1.4,1.4,1.4h21.83c1.03,0,1.45-.41,1.45-1.45V9.09c0-1.05-.39-1.44-1.44-1.44ZM22.53,28.66c-.41.63-.99,1.11-1.75,1.46-.76.36-1.67.53-2.71.53h-6.62v-15.35h6.34c1.04,0,1.94.17,2.69.5.76.34,1.33.81,1.72,1.41.39.6.58,1.28.58,2.05,0,.89-.24,1.64-.71,2.24-.48.6-1.11,1.03-1.91,1.28.87.16,1.58.59,2.14,1.3.55.7.83,1.51.83,2.41,0,.83-.2,1.55-.6,2.17Z"/>
      <path class="cls-1" d="M22.89.11c-3.1.92-6.21,1.85-9.31,2.77-2.97.88-5.95,1.75-8.92,2.64-1.47.44-2.38,1.73-2.38,3.35,0,7.5,0,15,0,22.49,0,.24,0,.48,0,.77-.47,0-.93.06-1.36-.02C.29,32.02,0,31.54,0,30.79,0,26.7,0,22.61,0,18.52,0,12.86,0,7.2,0,1.53,0,.38.38,0,1.54,0,8.46,0,15.38,0,22.3,0c.2,0,.4,0,.59,0,0,.04,0,.07,0,.11Z"/>
      <path class="cls-1" d="M25.41,1.7v3.64h-12.04s-.01-.04-.02-.06c3.99-1.19,7.98-2.37,12.05-3.59Z"/>
    </g>
  </g>
</svg>