<?xml version="1.0" encoding="UTF-8"?>
<svg id="Layer_2" data-name="Layer 2" xmlns="http://www.w3.org/2000/svg" viewBox="0 0 23.52 23.55">
  <defs>
    <style>
      .cls-1 {
        fill: #333;
        stroke: #333;
        stroke-miterlimit: 10;
        stroke-width: .31px;
      }
    </style>
  </defs>
  <g id="Capa_1" data-name="Capa 1">
    <g>
      <path class="cls-1" d="M7.43,9.91c.4.9.99,1.71,1.65,2.47,1.22,1.41,2.57,2.67,4.22,3.56.24.13.39.13.58-.08.49-.52,1-1.02,1.53-1.5.87-.77,2.05-.77,2.89.03,1.01.96,2,1.94,2.95,2.95.98,1.04.95,2.23-.04,3.3-.57.62-1.16,1.23-1.78,1.81-.86.8-1.91,1.04-3.06.93-1.91-.18-3.62-.93-5.26-1.85-4.19-2.35-7.36-5.69-9.56-9.95-.62-1.21-1.11-2.47-1.32-3.82-.25-1.55-.02-2.96,1.23-4.08.55-.49,1.02-1.07,1.58-1.55,1.02-.87,2.13-.87,3.1.03,1.03.96,2.03,1.97,2.99,3.01.83.91.79,2.02-.02,2.96-.27.31-.57.6-.85.89-.27.29-.55.58-.84.88ZM1.47,6.79c.05.37.08.75.16,1.11.23,1.11.64,2.15,1.16,3.15,1.69,3.28,4.03,6,7.05,8.11,2.01,1.4,4.13,2.61,6.64,2.9.86.1,1.6-.1,2.22-.73.49-.5.98-1,1.47-1.51.63-.65.63-1.09-.01-1.73-.84-.84-1.68-1.68-2.52-2.52-.61-.61-1.01-.61-1.63,0-.52.51-1.03,1.03-1.54,1.54-.45.45-.8.48-1.38.2-1.21-.58-2.29-1.36-3.27-2.26-1.47-1.35-2.79-2.82-3.64-4.66-.3-.65-.23-.99.29-1.49.5-.48.99-.96,1.48-1.45.61-.62.61-1.02,0-1.64-.85-.86-1.71-1.72-2.56-2.57-.56-.55-1.04-.56-1.6,0-.48.47-.95.97-1.44,1.43-.61.58-.91,1.27-.87,2.12Z"/>
      <path class="cls-1" d="M13.17.15c.5.13,1.16.25,1.78.47,3.92,1.4,6.59,4.06,7.96,8,.2.57.31,1.17.43,1.75.08.39-.11.68-.47.77-.35.09-.67-.08-.79-.46-.23-.77-.38-1.58-.68-2.32-1.36-3.3-3.77-5.49-7.18-6.58-.46-.15-.94-.22-1.4-.35-.32-.09-.52-.42-.47-.73.06-.32.34-.56.82-.56Z"/>
      <path class="cls-1" d="M18.42,11.36c-.28-.02-.49-.19-.57-.53-.19-.89-.5-1.74-1.03-2.49-.95-1.35-2.22-2.23-3.84-2.58-.11-.02-.21-.05-.32-.08-.38-.1-.56-.43-.48-.81.08-.33.43-.55.78-.48,3.15.57,5.6,3.03,6.18,6.19.08.43-.24.8-.73.79Z"/>
    </g>
  </g>
</svg>