<?xml version="1.0" encoding="UTF-8"?>
<svg id="Layer_2" data-name="Layer 2" xmlns="http://www.w3.org/2000/svg" viewBox="0 0 32.95 32.82">
  <defs>
    <style>
      .cls-1 {
        stroke: #333;
        stroke-miterlimit: 10;
        stroke-width: 2px;
      }

      .cls-1, .cls-2 {
        fill: #333;
      }

      .cls-2 {
        stroke-width: 0px;
      }
    </style>
  </defs>
  <g id="Capa_1" data-name="Capa 1">
    <g>
      <path class="cls-2" d="M32.82,16.09c-.67-.98-1.29-1.98-1.97-2.96-.25-.36-.32-.73-.29-1.16.09-1.15.13-2.3.21-3.45.02-.29-.08-.42-.33-.55-1.07-.52-2.13-1.05-3.16-1.61-.28-.16-.56-.42-.71-.7-.55-1.01-1.06-2.04-1.56-3.07-.16-.35-.35-.48-.74-.45-1.18.09-2.37.16-3.55.19-.29,0-.61-.09-.86-.24-1-.62-1.99-1.28-2.97-1.95-.29-.2-.49-.18-.77.01-.97.66-1.94,1.31-2.93,1.93-.26.16-.6.26-.91.25-1.18-.03-2.37-.1-3.55-.19-.36-.02-.55.09-.7.42-.52,1.07-1.05,2.12-1.61,3.17-.13.24-.36.47-.6.59-1.06.57-2.13,1.1-3.21,1.63-.27.13-.39.27-.36.59.08,1.14.12,2.3.21,3.44.03.44-.06.8-.3,1.16-.74,1.08-1.44,2.18-2.16,3.27.73,1.12,1.47,2.19,2.15,3.31.19.31.29.73.29,1.09-.02,1.1-.09,2.2-.19,3.3-.03.42.09.64.47.82,1.03.48,2.04.99,3.03,1.54.28.15.55.42.7.7.57,1.05,1.09,2.14,1.65,3.2.08.15.32.31.49.31,1.22-.04,2.43-.15,3.65-.18.31-.01.66.07.91.23.99.61,1.97,1.26,2.93,1.93.32.22.55.2.86-.02.96-.66,1.94-1.3,2.93-1.92.2-.14.47-.25.71-.24,1.25.04,2.5.12,3.75.21.3.03.46-.04.6-.32.52-1.07,1.04-2.13,1.61-3.17.17-.31.47-.59.77-.76,1.01-.56,2.04-1.06,3.08-1.56.29-.15.39-.32.37-.64-.09-1.16-.17-2.33-.19-3.5-.01-.33.1-.71.28-1,.63-1.02,1.3-2.02,1.98-3.01.16-.24.15-.4-.01-.64ZM16.5,27.45c-6.09-.01-11.05-4.97-11.04-11.05.01-6.06,4.92-11.01,11.03-11.02,6.19-.01,11.04,4.94,11.06,11.03.03,6.08-4.97,11.05-11.05,11.04Z"/>
      <path class="cls-1" d="M21.48,13.99c0,.1-.18.2-.28.29-1.82,1.73-3.65,3.45-5.48,5.17-.51.48-.77.48-1.25-.01-.91-.93-1.81-1.85-2.7-2.78-.06-.06-.13-.12-.18-.18-.24-.3-.27-.61.02-.88.27-.26.57-.2.82.05.67.67,1.33,1.35,1.99,2.03.21.22.42.44.68.71,1.73-1.62,3.4-3.2,5.08-4.78.16-.15.31-.37.5-.43.23-.07.62-.09.72.04.14.16.1.51.08.77Z"/>
    </g>
  </g>
</svg>