<?xml version="1.0" encoding="UTF-8"?>
<svg id="Layer_2" data-name="Layer 2" xmlns="http://www.w3.org/2000/svg" viewBox="0 0 25.42 34.95">
  <defs>
    <style>
      .cls-1 {
        fill: #333;
        stroke-width: 0px;
      }
    </style>
  </defs>
  <g id="Capa_1" data-name="Capa 1">
    <g>
      <g>
        <path class="cls-1" d="M24.7,9.02c-1.68,0-3.35.01-5.03,0-1.34-.01-2.36-.58-2.93-1.8-.2-.43-.29-.95-.3-1.42-.04-1.91-.02-3.82-.02-5.8H1.49C.27,0,0,.27,0,1.47v32.06c0,1.13.3,1.42,1.43,1.42h22.51c1.2,0,1.48-.27,1.48-1.48V9.02h-.72ZM4.68,6.93h3.94c1.19,0,2.23.23,3.13.7.9.46,1.59,1.12,2.08,1.98.49.85.74,1.85.74,2.98,0,.91-.16,1.74-.49,2.46-.07.17-.16.34-.25.5-.32.55-.72,1.01-1.2,1.38-.27.23-.56.42-.88.59-.9.46-1.94.69-3.13.69h-3.94V6.93ZM19.47,29.27c-2.27.01-4.54,0-6.81,0s-4.55.01-6.82,0c-.6,0-1.01-.34-1.09-.86-.08-.5.17-.96.65-1.14.16-.06.35-.07.53-.07,4.51,0,9.02,0,13.53,0,.72,0,1.17.42,1.18,1.07.01.61-.44,1-1.17,1ZM19.77,23.07c-.41.06-.84.03-1.25.03-1.95.01-3.9.01-5.85.01-2.15,0-4.3,0-6.45-.01-.21,0-.43,0-.65-.04-.51-.09-.78-.43-.83-.94-.04-.49.29-.93.77-1.06.13-.03.28-.04.43-.04,4.5-.01,8.99,0,13.49-.01.45,0,.82.12,1.06.54.38.66.03,1.43-.72,1.52Z"/>
        <path class="cls-1" d="M18.5.24c2.24,2.23,4.45,4.44,6.67,6.65-.12.01-.27.04-.42.04-1.64,0-3.27,0-4.91,0-.99,0-1.34-.37-1.34-1.36,0-1.78,0-3.56,0-5.33Z"/>
      </g>
      <path class="cls-1" d="M12.26,12.59c0,.91-.2,1.66-.59,2.25-.11.17-.24.33-.38.48-.65.64-1.56.97-2.75.97h-1.6v-7.45h1.6c1.19,0,2.1.33,2.75.99.64.66.97,1.58.97,2.76Z"/>
    </g>
  </g>
</svg>