<?xml version="1.0" encoding="UTF-8"?>
<svg id="Layer_2" data-name="Layer 2" xmlns="http://www.w3.org/2000/svg" viewBox="0 0 55.5 55.5">
  <defs>
    <style>
      .cls-1 {
        fill: #fff;
        stroke-width: 0px;
      }
    </style>
  </defs>
  <g id="Capa_1" data-name="Capa 1">
    <g>
      <path class="cls-1" d="M27.76,0c6.94,0,13.87,0,20.81,0,4.2,0,6.93,2.74,6.93,6.95,0,13.87,0,27.74,0,41.62,0,4.2-2.74,6.93-6.95,6.93-13.87,0-27.74,0-41.62,0C2.74,55.5,0,52.76,0,48.55c0-13.87,0-27.74,0-41.62C0,2.74,2.74,0,6.95,0c6.94,0,13.87,0,20.81,0ZM51.16,27.75c0-6.94,0-13.87,0-20.81,0-1.79-.8-2.6-2.58-2.6-13.87,0-27.74,0-41.61,0-1.84,0-2.62.79-2.62,2.65,0,13.84,0,27.68,0,41.52,0,1.85.79,2.64,2.63,2.64,13.84,0,27.68,0,41.52,0,1.89,0,2.66-.78,2.66-2.69,0-6.91,0-13.81,0-20.72Z"/>
      <path class="cls-1" d="M45.73,45.78h-7.41c-.01-.3-.04-.6-.04-.9,0-3.58.02-7.17-.01-10.75,0-1.09-.07-2.2-.25-3.28-.38-2.27-1.54-3.35-3.56-3.44-2.29-.11-3.98.97-4.54,3.07-.28,1.05-.41,2.16-.42,3.24-.05,3.7-.02,7.4-.02,11.1,0,.31,0,.62,0,.97h-7.32v-24.4h7.26v3.04c.17-.08.25-.1.29-.15,1.65-2.3,3.95-3.32,6.7-3.3,1.26,0,2.56.1,3.77.41,2.9.76,4.48,2.85,5.04,5.69.32,1.61.5,3.26.52,4.9.07,4.36.03,8.73.03,13.09,0,.22-.03.45-.04.72Z"/>
      <path class="cls-1" d="M9.76,45.76v-24.38h7.52v24.38h-7.52Z"/>
      <path class="cls-1" d="M18.08,13.53c0,2.48-1.98,4.5-4.42,4.49-2.4,0-4.47-2.09-4.46-4.5.01-2.44,2.05-4.44,4.5-4.42,2.44.02,4.37,1.97,4.38,4.42Z"/>
    </g>
  </g>
</svg>