<?xml version="1.0" encoding="UTF-8"?>
<svg id="Layer_2" data-name="Layer 2" xmlns="http://www.w3.org/2000/svg" viewBox="0 0 55.16 55.5">
  <defs>
    <style>
      .cls-1 {
        fill: #fff;
        stroke-width: 0px;
      }
    </style>
  </defs>
  <g id="Capa_1" data-name="Capa 1">
    <g>
      <path class="cls-1" d="M27.57,55.19c-3.99,0-7.98.13-11.96-.03-5.5-.23-10.19-2.19-13.23-7.08-1.41-2.28-2.24-4.81-2.27-7.45C.02,31.99-.11,23.35.15,14.72.32,9.1,2.93,4.6,8.11,1.9,10.4.71,12.89.11,15.44.09c8.03-.08,16.06-.15,24.09.01,4.95.1,9.32,1.83,12.44,5.95,1.89,2.5,2.96,5.38,3.01,8.43.14,8.72.35,17.46-.04,26.16-.39,8.45-6.1,13.63-13.77,14.32-4.51.4-9.05.37-13.58.54,0-.1,0-.21,0-.31ZM4.76,27.67c.11,4.1.14,8.23.35,12.36.16,3.1,1.19,5.88,3.73,7.89,1.99,1.57,4.34,2.18,6.79,2.22,6.47.12,12.94.16,19.41.17,2.02,0,4.05-.08,6.05-.34,4.13-.54,7.1-2.68,8.35-6.76.43-1.39.64-2.89.68-4.34.13-5.17.19-10.34.18-15.51,0-2.89-.09-5.78-.33-8.65-.29-3.53-1.77-6.44-5.01-8.2-1.73-.94-3.64-1.31-5.58-1.38-8.34-.28-16.69-.47-25.03.15-2.66.2-5.02,1.26-6.82,3.35-1.66,1.93-2.33,4.25-2.44,6.71-.19,4.1-.24,8.2-.34,12.33Z"/>
      <path class="cls-1" d="M27.54,41.87c-7.88-.01-14.3-6.45-14.25-14.29.05-7.89,6.44-14.24,14.33-14.21,7.87.03,14.24,6.46,14.2,14.33-.04,7.83-6.43,14.18-14.27,14.16ZM27.56,36.84c5.12,0,9.26-4.13,9.25-9.24,0-5.09-4.17-9.21-9.3-9.19-5.09.02-9.19,4.12-9.2,9.19,0,5.11,4.12,9.24,9.25,9.24Z"/>
      <path class="cls-1" d="M39.07,12.79c0-1.84,1.44-3.29,3.28-3.3,1.86-.02,3.35,1.47,3.34,3.34,0,1.81-1.5,3.32-3.29,3.34-1.82.02-3.34-1.51-3.33-3.37Z"/>
    </g>
  </g>
</svg>