<?xml version="1.0" encoding="UTF-8"?>
<svg id="Layer_2" data-name="Layer 2" xmlns="http://www.w3.org/2000/svg" viewBox="0 0 285.17 92.26">
  <defs>
    <style>
      .cls-1 {
        fill: #fff;
      }

      .cls-1, .cls-2 {
        stroke-width: 0px;
      }

      .cls-2 {
        fill: #dab875;
      }
    </style>
  </defs>
  <g id="Capa_1" data-name="Capa 1">
    <g>
      <g>
        <g>
          <path class="cls-2" d="M8.38,1.53v89.21c-2.7.76-5.5,1.27-8.38,1.53V0c2.88.25,5.68.77,8.38,1.53Z"/>
          <path class="cls-2" d="M25.14,10.23v71.8c-2.58,2.1-5.38,3.93-8.38,5.45V4.78c3,1.51,5.8,3.34,8.38,5.45Z"/>
          <path class="cls-2" d="M42.19,46.13c0,10.07-3.22,19.39-8.68,26.99V19.14c5.46,7.6,8.68,16.92,8.68,26.99Z"/>
        </g>
        <g>
          <path class="cls-2" d="M84.36,1.53v89.21c2.7.76,5.5,1.27,8.38,1.53V0c-2.88.25-5.68.77-8.38,1.53Z"/>
          <path class="cls-2" d="M67.61,10.23v71.8c2.58,2.1,5.38,3.93,8.38,5.45V4.78c-3,1.51-5.8,3.34-8.38,5.45Z"/>
          <path class="cls-2" d="M50.55,46.13c0,10.07,3.22,19.39,8.68,26.99V19.14c-5.46,7.6-8.68,16.92-8.68,26.99Z"/>
        </g>
      </g>
      <g>
        <path class="cls-1" d="M139.27,36.87c-1.58-2.71-3.81-4.83-6.68-6.35-2.86-1.52-6.12-2.28-9.78-2.28h-12.23v35.84h11.92c3.72,0,7.02-.76,9.93-2.28,2.9-1.51,5.16-3.64,6.78-6.35s2.44-5.81,2.44-9.29-.8-6.58-2.39-9.29ZM132.08,51.95c-.89,1.67-2.13,2.98-3.72,3.92-1.58.94-3.37,1.41-5.35,1.41h-4.34v-22.22h3.99c2.05,0,3.88.46,5.5,1.4,1.62.95,2.9,2.27,3.84,3.97.94,1.71,1.41,3.64,1.41,5.79s-.44,4.06-1.33,5.73Z"/>
        <path class="cls-1" d="M158.73,57.38v6.7h15.87v-6.7h-15.87ZM174.61,28.24h-15.87v6.71h15.87v-6.71ZM174.61,42.74h-15.87v6.7h15.87v-6.7ZM146.75,64.08h8.09V28.24h-8.09v35.84Z"/>
        <path class="cls-1" d="M208.01,28.24l-9.83,27.03-9.78-27.03h-8.71l14.08,35.84h8.35l14.23-35.84h-8.35Z"/>
        <path class="cls-1" d="M250,36.95c-1.57-2.74-3.73-4.88-6.47-6.43-2.73-1.55-5.78-2.34-9.11-2.34s-6.43.78-9.14,2.34c-2.72,1.55-4.88,3.69-6.45,6.43-1.57,2.73-2.36,5.76-2.36,9.11s.79,6.43,2.36,9.16c1.57,2.74,3.73,4.89,6.47,6.46,2.73,1.57,5.78,2.35,9.12,2.35s6.38-.78,9.11-2.35c2.74-1.57,4.9-3.73,6.47-6.48,1.57-2.75,2.36-5.79,2.36-9.14s-.79-6.38-2.36-9.11ZM243.27,51.69c-.91,1.7-2.13,3.04-3.67,4.02-1.54.98-3.24,1.47-5.08,1.47s-3.56-.5-5.13-1.49c-1.57-1-2.84-2.34-3.77-4.03-.94-1.69-1.41-3.56-1.41-5.61s.46-3.87,1.38-5.56c.93-1.69,2.18-3.02,3.78-4,1.58-.98,3.3-1.47,5.16-1.47s3.54.49,5.08,1.47c1.54.98,2.76,2.31,3.67,4,.91,1.69,1.36,3.55,1.36,5.56s-.45,3.93-1.36,5.64Z"/>
        <g>
          <polygon class="cls-1" points="252.36 28.24 261.19 28.24 285.17 64.08 275.73 64.08 252.36 28.24"/>
          <polygon class="cls-1" points="285.17 28.24 276.34 28.24 252.36 64.08 261.79 64.08 285.17 28.24"/>
        </g>
      </g>
    </g>
  </g>
</svg>