<?xml version="1.0" encoding="UTF-8"?>
<svg id="Layer_2" data-name="Layer 2" xmlns="http://www.w3.org/2000/svg" viewBox="0 0 26.35 46.2">
  <defs>
    <style>
      .cls-1 {
        fill: #fff;
        stroke-width: 0px;
      }
    </style>
  </defs>
  <g id="Capa_1" data-name="Capa 1">
    <path class="cls-1" d="M7.83,23.12c2.63,2.63,5.22,5.21,7.81,7.79,3.2,3.2,6.41,6.39,9.59,9.6,1.79,1.8,1.35,4.47-.86,5.43-1.28.56-2.63.23-3.8-.93-3.13-3.13-6.26-6.26-9.39-9.39-3.27-3.27-6.53-6.53-9.8-9.8-1.85-1.85-1.85-3.59,0-5.44C7.76,14.01,14.14,7.63,20.52,1.25c1.52-1.52,3.42-1.67,4.81-.37,1.25,1.16,1.38,3.12.24,4.42-.84.96-1.77,1.83-2.67,2.73-4.85,4.85-9.7,9.69-14.55,14.54-.15.15-.3.31-.51.54Z"/>
  </g>
</svg>