<?xml version="1.0" encoding="UTF-8"?>
<svg id="Layer_2" data-name="Layer 2" xmlns="http://www.w3.org/2000/svg" viewBox="0 0 32.95 32.95">
  <defs>
    <style>
      .cls-1 {
        fill: #333;
        stroke-width: 0px;
      }
    </style>
  </defs>
  <g id="Capa_1" data-name="Capa 1">
    <g>
      <path class="cls-1" d="M13.56,6.81c-.1.6-.22,1.22-.29,1.85-.02.2.02.48.14.61,3.4,3.43,6.83,6.85,10.23,10.28.24.24.45.22.74.16,1.65-.37,3.25-.33,4.81.43,2.84,1.39,4.35,4.69,3.52,7.73-.22.8-1.07,1.02-1.69.41-.83-.8-1.63-1.62-2.44-2.43-.51-.51-1.11-.74-1.82-.59-.71.14-1.2.56-1.44,1.25-.25.75-.08,1.43.46,1.99.76.79,1.55,1.56,2.32,2.33.11.11.22.21.32.34.43.57.18,1.32-.5,1.53-4.39,1.34-8.96-2.52-8.39-7.1.04-.31.03-.63.13-.91.21-.59,0-.96-.42-1.38-3.29-3.26-6.55-6.53-9.82-9.82-.27-.28-.51-.34-.9-.25-3.36.8-6.46-.63-7.88-3.66C-.03,8.13-.13,6.61.26,5.06c.2-.8,1.07-1.01,1.69-.41.82.8,1.62,1.63,2.44,2.43.67.65,1.49.81,2.26.45,1.22-.56,1.49-2.09.53-3.1-.77-.81-1.57-1.59-2.36-2.37-.34-.33-.59-.68-.44-1.18.14-.48.52-.61.97-.72,3.53-.84,7.22,1.48,7.97,5.03.11.52.16,1.05.24,1.61Z"/>
      <path class="cls-1" d="M15.78,22.71c-.4.37-.85.76-1.27,1.19-2.61,2.6-5.21,5.21-7.82,7.81-2.17,2.14-5.57,1.37-6.49-1.5-.49-1.5-.08-2.84,1.02-3.95,1.37-1.38,2.74-2.74,4.11-4.11,1.5-1.5,3.01-3,4.5-4.51.16-.16.27-.36.38-.51,1.9,1.9,3.7,3.7,5.57,5.58Z"/>
      <path class="cls-1" d="M21.26,14.34c-.97-.98-1.86-1.88-2.75-2.77,2.11-2.13,4.25-4.27,6.37-6.41-.02-.06-.02-.1-.04-.12-.98-.82-.62-1.61.27-2.1,1.5-.82,2.94-1.75,4.41-2.63.76-.46,1.1-.42,1.72.2.41.41.83.82,1.24,1.24.56.57.61.91.2,1.59-.94,1.57-1.88,3.15-2.83,4.72-.47.78-1.11.86-1.76.22-.13-.13-.22-.31-.36-.53-2.24,2.28-4.36,4.44-6.47,6.6Z"/>
    </g>
  </g>
</svg>